<svg preserveAspectRatio="none" width="100%" height="100%" overflow="visible" style="display: block;" viewBox="0 0 18.2978 17.5192" fill="none" xmlns="http://www.w3.org/2000/svg">
<g id="vector">
<path d="M9.31633 8.59826C9.41241 9.2819 8.9361 9.91399 8.25246 10.0101C7.56882 10.1061 6.93674 9.62983 6.84066 8.9462C6.74458 8.26256 7.22089 7.63047 7.90453 7.53439C8.58817 7.43831 9.22025 7.91462 9.31633 8.59826Z" fill="var(--fill-0, #0D0D0D)"/>
<path d="M11.0661 0.172816L13.9467 0.526501C14.6125 0.608241 15.162 0.675704 15.6051 0.76724C16.0654 0.862311 16.4828 0.996311 16.8591 1.25014C17.4427 1.64377 17.8867 2.21205 18.1274 2.87353C18.2827 3.30008 18.3117 3.73746 18.2926 4.20705C18.2742 4.65917 18.2067 5.20868 18.125 5.87448L17.7713 8.75498C17.6896 9.42081 17.6221 9.97033 17.5306 10.4135C17.4355 10.8737 17.3015 11.2911 17.0477 11.6674C16.654 12.251 16.0857 12.695 15.4243 12.9358C15.3564 12.9604 15.2878 12.9821 15.2183 13.001C14.7741 13.1215 14.3163 12.8592 14.1958 12.415C14.0753 11.9708 14.3376 11.5131 14.7818 11.3925C14.8071 11.3856 14.8311 11.378 14.8542 11.3696C15.185 11.2492 15.4691 11.0272 15.6659 10.7354C15.7477 10.6142 15.8242 10.4353 15.8983 10.0763C15.9745 9.70779 16.0343 9.22624 16.1212 8.51775L16.4665 5.70553C16.5535 4.99704 16.612 4.51533 16.6273 4.13932C16.6422 3.77306 16.6113 3.58102 16.5613 3.44356C16.4409 3.11283 16.2189 2.82869 15.9271 2.63187C15.8058 2.55007 15.627 2.4736 15.268 2.39945C14.8994 2.32332 14.4179 2.26354 13.7094 2.17655L10.8972 1.83125C10.1887 1.74426 9.70699 1.68577 9.33097 1.67048C8.96471 1.65558 8.77267 1.68651 8.63522 1.73654C8.30448 1.85692 8.02034 2.07891 7.82352 2.37071C7.76781 2.45331 7.71447 2.56305 7.66298 2.73681C7.53221 3.17808 7.06848 3.42978 6.62721 3.29901C6.18594 3.16824 5.93424 2.70451 6.06501 2.26325C6.15236 1.96849 6.26934 1.69438 6.44179 1.43872C6.83543 0.855133 7.40371 0.411144 8.06519 0.170385C8.49173 0.0151354 8.92912 -0.0139141 9.3987 0.00518556C9.85083 0.023575 10.4003 0.0910546 11.0661 0.172816ZM8.96683 6.08357C8.59081 6.09887 8.10911 6.15736 7.40061 6.24435L4.5884 6.58965C3.8799 6.67664 3.39835 6.73642 3.02981 6.81255C2.67082 6.8867 2.49197 6.96317 2.37071 7.04497C2.07891 7.24178 1.85692 7.52592 1.73654 7.85666C1.68651 7.99412 1.65558 8.18615 1.67048 8.55241C1.68577 8.92843 1.74426 9.41013 1.83125 10.1186L2.06252 12.0022C2.23653 11.8134 2.39749 11.6455 2.54942 11.5C2.87527 11.188 3.20797 10.9302 3.61262 10.7649C4.24205 10.5076 4.93509 10.4491 5.59877 10.597C6.02544 10.6921 6.39669 10.8904 6.77029 11.1432C7.1293 11.3862 7.54206 11.7165 8.04112 12.1157L11.0951 14.5589C11.2123 14.4152 11.3054 14.2521 11.3696 14.0757C11.4196 13.9382 11.4506 13.7462 11.4357 13.3799C11.4204 13.0039 11.3619 12.5222 11.2749 11.8137L10.9296 9.00149C10.8426 8.293 10.7828 7.81145 10.7067 7.44291C10.6325 7.08392 10.5561 6.90507 10.4743 6.7838C10.2775 6.49201 9.99332 6.27002 9.66258 6.14964C9.52512 6.09961 9.33309 6.06867 8.96683 6.08357ZM9.28596 15.246L7.02599 13.438C6.49434 13.0127 6.13341 12.7247 5.83607 12.5235C5.5471 12.3279 5.37501 12.2547 5.2362 12.2237C4.90436 12.1498 4.55784 12.1791 4.24312 12.3077C4.11147 12.3615 3.95412 12.4625 3.70208 12.7039C3.44275 12.9522 3.13527 13.2966 2.68257 13.8052L2.34399 14.1855C2.3619 14.2953 2.38015 14.396 2.39945 14.4894C2.4736 14.8484 2.55007 15.0273 2.63187 15.1485C2.82869 15.4403 3.11283 15.6623 3.44357 15.7827C3.58102 15.8327 3.77306 15.8637 4.13932 15.8488C4.51533 15.8335 4.99704 15.775 5.70553 15.688L8.51775 15.3427C8.80969 15.3068 9.06311 15.2756 9.28596 15.246ZM8.89909 4.41828C9.36868 4.39918 9.80607 4.42823 10.2326 4.58348C10.8941 4.82424 11.4624 5.26823 11.856 5.85181C12.1098 6.22813 12.2438 6.6455 12.3389 7.10576C12.4304 7.54891 12.4979 8.09843 12.5796 8.76426L12.9333 11.6447C13.0151 12.3105 13.0826 12.86 13.101 13.3122C13.1201 13.7818 13.091 14.2192 12.9358 14.6457C12.695 15.3072 12.251 15.8755 11.6674 16.2691C11.2911 16.5229 10.8737 16.6569 10.4135 16.752C9.97033 16.8435 9.42081 16.911 8.75498 16.9927L5.87448 17.3464C5.20867 17.4282 4.65917 17.4957 4.20705 17.5141C3.73746 17.5332 3.30008 17.5041 2.87353 17.3489C2.21205 17.1081 1.64377 16.6641 1.25014 16.0805C0.996311 15.7042 0.862311 15.2868 0.76724 14.8266C0.675704 14.3834 0.608242 13.8339 0.526501 13.1681L0.172816 10.2876C0.0910546 9.62178 0.023575 9.07227 0.00518556 8.62015C-0.0139141 8.15056 0.0151354 7.71317 0.170385 7.28663C0.411144 6.62515 0.855132 6.05687 1.43872 5.66324C1.81503 5.40941 2.2324 5.27541 2.69266 5.18034C3.1358 5.0888 3.6853 5.02134 4.3511 4.9396L7.23165 4.58591C7.89746 4.50415 8.44697 4.43667 8.89909 4.41828Z" fill="var(--fill-0, #0D0D0D)"/>
</g>
</svg>
