<svg preserveAspectRatio="none" width="100%" height="100%" overflow="visible" style="display: block;" viewBox="0 0 12.8506 15.8333" fill="none" xmlns="http://www.w3.org/2000/svg">
<g id="vector">
<path d="M12.2548 7.53462C12.6959 7.6659 12.9471 8.12993 12.8158 8.57104C12.073 11.067 9.9079 12.9514 7.25872 13.2818V14.1667H8.50872C8.96896 14.1667 9.34206 14.5398 9.34206 15C9.34206 15.4602 8.96896 15.8333 8.50872 15.8333H4.34206C3.88182 15.8333 3.50872 15.4602 3.50872 15C3.50872 14.5398 3.88182 14.1667 4.34206 14.1667H5.59206V13.2818C2.94282 12.9515 0.777698 11.0671 0.034841 8.57104C-0.0964416 8.12993 0.154728 7.6659 0.595844 7.53462C1.03696 7.40334 1.50098 7.65451 1.63226 8.09563C2.24712 10.1616 4.16154 11.6667 6.42532 11.6667C8.6891 11.6667 10.6035 10.1616 11.2184 8.09563C11.3497 7.65451 11.8137 7.40334 12.2548 7.53462Z" fill="var(--fill-0, #0D0D0D)"/>
<path fill-rule="evenodd" clip-rule="evenodd" d="M8.50871 6.66667V3.75C8.50871 2.59941 7.57597 1.66667 6.42537 1.66667C5.27478 1.66667 4.34204 2.59941 4.34204 3.75V6.66667C4.34204 7.81726 5.27478 8.75 6.42537 8.75C7.57597 8.75 8.50871 7.81726 8.50871 6.66667ZM6.42537 0C4.35431 0 2.67537 1.67893 2.67537 3.75V6.66667C2.67537 8.73773 4.35431 10.4167 6.42537 10.4167C8.49644 10.4167 10.1754 8.73773 10.1754 6.66667V3.75C10.1754 1.67893 8.49644 0 6.42537 0Z" fill="var(--fill-0, #0D0D0D)"/>
</g>
</svg>
