<svg preserveAspectRatio="none" width="100%" height="100%" overflow="visible" style="display: block;" viewBox="0 0 15 15" fill="none" xmlns="http://www.w3.org/2000/svg">
<path id="vector" d="M6.91075 0.244078C7.23618 -0.0813592 7.76382 -0.0813592 8.08926 0.244078L11.4226 3.57741C11.748 3.90285 11.748 4.43049 11.4226 4.75592C11.0972 5.08136 10.5695 5.08136 10.2441 4.75592L8.33333 2.84518V10C8.33333 10.4602 7.96024 10.8333 7.5 10.8333C7.03976 10.8333 6.66667 10.4602 6.66667 10V2.84518L4.75592 4.75592C4.43049 5.08136 3.90285 5.08136 3.57741 4.75592C3.25197 4.43049 3.25197 3.90285 3.57741 3.57741L6.91075 0.244078ZM0.833334 9.16667C1.29357 9.16667 1.66667 9.53976 1.66667 10V10.1667C1.66667 10.8805 1.66732 11.3657 1.69796 11.7408C1.72781 12.1061 1.78192 12.293 1.84832 12.4233C2.00811 12.7369 2.26308 12.9919 2.57668 13.1517C2.70702 13.2181 2.89385 13.2722 3.2592 13.302C3.63427 13.3327 4.11952 13.3333 4.83333 13.3333H10.1667C10.8805 13.3333 11.3657 13.3327 11.7408 13.302C12.1061 13.2722 12.293 13.2181 12.4233 13.1517C12.7369 12.9919 12.9919 12.7369 13.1517 12.4233C13.2181 12.293 13.2722 12.1061 13.302 11.7408C13.3327 11.3657 13.3333 10.8805 13.3333 10.1667V10C13.3333 9.53976 13.7064 9.16667 14.1667 9.16667C14.6269 9.16667 15 9.53976 15 10V10.2011C15 10.8719 15 11.4255 14.9632 11.8765C14.9249 12.3449 14.8428 12.7755 14.6367 13.18C14.3171 13.8072 13.8072 14.3171 13.18 14.6367C12.7755 14.8428 12.3449 14.9249 11.8765 14.9632C11.4255 15 10.8719 15 10.2011 15H4.7989C4.1281 15 3.57447 15 3.12348 14.9632C2.65506 14.9249 2.22448 14.8428 1.82003 14.6367C1.19283 14.3171 0.68289 13.8072 0.363312 13.18C0.157237 12.7755 0.0750998 12.3449 0.0368288 11.8765C-1.90114e-05 11.4255 -1.02701e-05 10.8719 3.59409e-07 10.2011L7.56773e-07 10C7.56773e-07 9.53976 0.373097 9.16667 0.833334 9.16667Z" fill="var(--fill-0, #0D0D0D)"/>
</svg>
