<svg preserveAspectRatio="none" width="100%" height="100%" overflow="visible" style="display: block;" viewBox="0 0 11.757 15.6052" fill="none" xmlns="http://www.w3.org/2000/svg">
<path id="Vector" d="M11.4765 10.2649C11.3775 10.2649 11.2903 10.3486 11.1996 10.5312C10.1754 12.608 8.40651 14.0774 6.35951 14.0774C3.9926 14.0774 2.52685 11.9408 2.52685 8.98902C2.52685 3.98901 5.31272 1.09811 7.75964 1.09811C8.90305 1.09811 9.60133 1.81666 9.60133 2.96013C9.60133 4.31726 8.8303 5.03581 8.8303 5.51444C8.8303 5.72929 8.96394 5.85938 9.22895 5.85938C10.2937 5.85938 11.5433 4.63595 11.5433 2.90761C11.5433 1.23179 10.0847 0 7.63787 0C3.59394 0 0 3.7491 0 8.93647C0 12.9518 2.29291 15.6052 5.83075 15.6052C9.58579 15.6052 11.757 11.8691 11.757 10.6565C11.757 10.388 11.6197 10.2649 11.4765 10.2649Z" fill="var(--fill-0, white)"/>
</svg>
