<svg preserveAspectRatio="none" width="100%" height="100%" overflow="visible" style="display: block;" viewBox="0 0 15 3.33333" fill="none" xmlns="http://www.w3.org/2000/svg">
<path id="vector" d="M0 1.66667C0 0.746192 0.746192 0 1.66667 0C2.58714 0 3.33333 0.746192 3.33333 1.66667C3.33333 2.58714 2.58714 3.33333 1.66667 3.33333C0.746192 3.33333 0 2.58714 0 1.66667ZM5.83333 1.66667C5.83333 0.746192 6.57953 0 7.5 0C8.42047 0 9.16667 0.746192 9.16667 1.66667C9.16667 2.58714 8.42047 3.33333 7.5 3.33333C6.57953 3.33333 5.83333 2.58714 5.83333 1.66667ZM11.6667 1.66667C11.6667 0.746192 12.4129 0 13.3333 0C14.2538 0 15 0.746192 15 1.66667C15 2.58714 14.2538 3.33333 13.3333 3.33333C12.4129 3.33333 11.6667 2.58714 11.6667 1.66667Z" fill="var(--fill-0, #0D0D0D)"/>
</svg>
