<svg preserveAspectRatio="none" width="100%" height="100%" overflow="visible" style="display: block;" viewBox="0 0 64 64" fill="none" xmlns="http://www.w3.org/2000/svg">
<path id="Subtract" d="M32 0C49.6731 1.03082e-06 64 14.3269 64 32C64 49.6731 49.6731 64 32 64C14.3269 64 1.03088e-06 49.6731 0 32C0 14.3269 14.3269 0 32 0ZM35.5791 11.1914C24.7954 11.1914 15.2111 21.1887 15.2109 35.0215C15.2109 45.729 21.3256 52.8046 30.7598 52.8047C40.7732 52.8047 46.5635 42.8421 46.5635 39.6084C46.5634 38.8925 46.1973 38.5646 45.8154 38.5645C45.5514 38.5645 45.319 38.7874 45.0771 39.2744C42.346 44.8124 37.6286 48.7305 32.1699 48.7305C25.8582 48.7304 21.9493 43.0333 21.9492 35.1621C21.9492 21.829 29.3783 14.1194 35.9033 14.1191C38.9524 14.1191 40.8145 16.0357 40.8145 19.085C40.8144 22.7039 38.7588 24.6201 38.7588 25.8965C38.7588 26.4694 39.1156 26.8164 39.8223 26.8164C42.6613 26.8161 45.9929 23.5537 45.9932 18.9453C45.9932 14.4765 42.104 11.1915 35.5791 11.1914Z" fill="var(--fill-0, white)"/>
</svg>
