<svg width="64" height="32" viewBox="0 0 64 32" fill="none" xmlns="http://www.w3.org/2000/svg">
<path d="M11.2939 16.4473V19.6875H16.2295V21H9.72168V11.0059H16.1201V12.3184H11.2939V15.1553H15.5322V16.4473H11.2939ZM18.335 21V14.6631H17.1455V13.4531H18.335C18.2529 13.1159 18.2119 12.8105 18.2119 12.5371C18.2119 12.054 18.3167 11.6439 18.5264 11.3066C18.736 10.9694 19.0299 10.7165 19.4082 10.5479C19.7865 10.3747 20.2308 10.2881 20.7412 10.2881C21.4886 10.2881 22.0469 10.4225 22.416 10.6914L21.9854 11.7646L21.8418 11.792C21.5866 11.6143 21.2516 11.5254 20.8369 11.5254C20.4723 11.5254 20.1943 11.6234 20.0029 11.8193C19.8161 12.0153 19.7227 12.2933 19.7227 12.6533C19.7227 12.9131 19.7614 13.1797 19.8389 13.4531H23.1816C23.0996 13.1432 23.0586 12.8379 23.0586 12.5371C23.0586 12.054 23.1657 11.6439 23.3799 11.3066C23.5941 10.9694 23.8949 10.7165 24.2822 10.5479C24.6742 10.3747 25.1322 10.2881 25.6562 10.2881C26.4492 10.2881 27.0485 10.4408 27.4541 10.7461L27.0166 11.833L26.873 11.8604C26.5768 11.6416 26.2031 11.5322 25.752 11.5322C25.36 11.5322 25.0638 11.6325 24.8633 11.833C24.6628 12.029 24.5625 12.3024 24.5625 12.6533C24.5625 12.8949 24.6035 13.1615 24.6855 13.4531H26.9619V14.6631H24.6855V21H23.1816V14.6631H19.8389V21H18.335ZM34.3242 17.5684H29.3066C29.3932 19.0814 30.0951 19.8379 31.4121 19.8379C31.8997 19.8379 32.2917 19.7513 32.5879 19.5781C32.8887 19.4004 33.1257 19.127 33.2988 18.7578H33.4424L34.4336 19.373C34.2012 19.9108 33.8389 20.3415 33.3467 20.665C32.859 20.984 32.2142 21.1436 31.4121 21.1436C30.6602 21.1436 30.0107 20.9977 29.4639 20.7061C28.917 20.4144 28.4954 19.9769 28.1992 19.3936C27.903 18.8102 27.7549 18.0902 27.7549 17.2334C27.7549 16.3766 27.9098 15.6543 28.2197 15.0664C28.5296 14.4785 28.9535 14.041 29.4912 13.7539C30.029 13.4622 30.6351 13.3164 31.3096 13.3164C32.3258 13.3164 33.1097 13.5944 33.6611 14.1504C34.2171 14.7064 34.4974 15.5244 34.502 16.6045C34.502 17.0101 34.4906 17.304 34.4678 17.4863L34.3242 17.5684ZM33.0459 16.4951C33.0277 15.807 32.8704 15.3057 32.5742 14.9912C32.2826 14.6768 31.861 14.5195 31.3096 14.5195C30.7536 14.5195 30.307 14.6768 29.9697 14.9912C29.637 15.3057 29.4274 15.807 29.3408 16.4951H33.0459ZM39.4854 21.1436C38.7881 21.1436 38.166 20.9932 37.6191 20.6924C37.0768 20.387 36.6507 19.9404 36.3408 19.3525C36.0309 18.7646 35.876 18.0583 35.876 17.2334C35.876 16.4085 36.0309 15.7021 36.3408 15.1143C36.6507 14.5218 37.0768 14.0752 37.6191 13.7744C38.1615 13.4691 38.779 13.3164 39.4717 13.3164C40.2874 13.3164 40.9368 13.4668 41.4199 13.7676C41.903 14.0684 42.2493 14.4808 42.459 15.0049L41.4336 15.7432H41.29C41.1123 15.3604 40.8799 15.0778 40.5928 14.8955C40.3102 14.7087 39.9365 14.6152 39.4717 14.6152C38.8428 14.6152 38.346 14.8363 37.9814 15.2783C37.6169 15.7158 37.4346 16.3675 37.4346 17.2334C37.4346 18.0902 37.6169 18.7396 37.9814 19.1816C38.3506 19.6191 38.8519 19.8379 39.4854 19.8379C40.4242 19.8379 41.0531 19.3776 41.3721 18.457L41.5156 18.4502L42.5547 19.0381C42.3587 19.6715 42.0055 20.182 41.4951 20.5693C40.9847 20.9521 40.3148 21.1436 39.4854 21.1436ZM48.0576 19.5029L48.4814 20.6035C48.29 20.7767 48.0439 20.9089 47.7432 21C47.4424 21.0957 47.1097 21.1436 46.7451 21.1436C45.9886 21.1436 45.4121 20.943 45.0156 20.542C44.6191 20.141 44.4209 19.5417 44.4209 18.7441V14.6631H43.1904V13.4531H44.4209V11.9219L45.9248 11.6758V13.4531H48.208V14.6631H45.9248V18.6211C45.9248 19.0404 46.0114 19.3434 46.1846 19.5303C46.3623 19.7171 46.6152 19.8105 46.9434 19.8105C47.3125 19.8105 47.6361 19.708 47.9141 19.5029H48.0576ZM52.2002 21.1436C51.708 21.1436 51.2523 21.082 50.833 20.959C50.4183 20.8359 50.0651 20.6673 49.7734 20.4531C49.4863 20.2344 49.2767 19.9883 49.1445 19.7148L49.999 18.8057H50.1426C50.6393 19.5212 51.3275 19.8789 52.207 19.8789C52.6673 19.8789 53.016 19.7923 53.2529 19.6191C53.4945 19.4414 53.6152 19.1953 53.6152 18.8809C53.6152 18.6348 53.5355 18.432 53.376 18.2725C53.221 18.1084 52.9727 17.9854 52.6309 17.9033L51.4961 17.623C50.7852 17.4544 50.2633 17.1901 49.9307 16.8301C49.6025 16.4655 49.4385 16.012 49.4385 15.4697C49.4385 15.0277 49.5501 14.6449 49.7734 14.3213C50.0013 13.9977 50.3226 13.7493 50.7373 13.5762C51.152 13.403 51.6396 13.3164 52.2002 13.3164C52.8883 13.3164 53.4421 13.4144 53.8613 13.6104C54.2852 13.8018 54.6156 14.0661 54.8525 14.4033L54.0322 15.2578H53.8955C53.6722 14.998 53.4215 14.8112 53.1436 14.6973C52.8701 14.5833 52.5557 14.5264 52.2002 14.5264C51.7581 14.5264 51.4255 14.6016 51.2021 14.752C50.9788 14.8978 50.8672 15.112 50.8672 15.3945C50.8672 15.6452 50.9492 15.848 51.1133 16.0029C51.2773 16.1579 51.5622 16.2832 51.9678 16.3789L53.0615 16.6318C53.7725 16.7913 54.2874 17.0511 54.6064 17.4111C54.93 17.7712 55.0918 18.2406 55.0918 18.8193C55.0918 19.2796 54.9801 19.6852 54.7568 20.0361C54.5335 20.3825 54.2054 20.6536 53.7725 20.8496C53.3395 21.0456 52.8154 21.1436 52.2002 21.1436Z" fill="#0E1318"/>
</svg>
