<svg width="16" height="16" viewBox="0 0 16 16" fill="none" xmlns="http://www.w3.org/2000/svg">
<path d="M3.75776 3.7574C4.01811 3.49705 4.44022 3.49705 4.70057 3.7574L8.0004 7.05723L11.3002 3.7574C11.5606 3.49705 11.9827 3.49705 12.243 3.7574C12.5034 4.01775 12.5034 4.43985 12.243 4.70021L8.94321 8.00004L12.243 11.2999C12.5034 11.5602 12.5034 11.9823 12.243 12.2427C11.9827 12.503 11.5606 12.503 11.3002 12.2427L8.0004 8.94285L4.70057 12.2427C4.44022 12.503 4.01811 12.503 3.75776 12.2427C3.49741 11.9823 3.49741 11.5602 3.75776 11.2999L7.05759 8.00004L3.75776 4.70021C3.49741 4.43986 3.49741 4.01775 3.75776 3.7574Z" fill="#0285FF"/>
</svg>
