<svg width="24" height="24" viewBox="0 0 24 24" fill="none" xmlns="http://www.w3.org/2000/svg">
<path d="M17.251 9C19.9434 9 22.126 11.1826 22.126 13.875C22.126 16.5674 19.9434 18.75 17.251 18.75H12.751C11.0256 18.7499 9.51085 17.8526 8.64453 16.5H10.6309C11.2103 16.9687 11.9477 17.2499 12.751 17.25H17.251C19.1149 17.25 20.626 15.739 20.626 13.875C20.626 12.011 19.1149 10.5 17.251 10.5H12.751C11.5811 10.5001 10.5507 11.0958 9.94531 12H8.25098C8.98568 10.2386 10.7233 9.00016 12.751 9H17.251ZM11.625 5.25C13.3505 5.25 14.865 6.14744 15.7314 7.5H13.7451C13.1656 7.03136 12.4283 6.75 11.625 6.75H7.125C5.26104 6.75 3.75 8.26104 3.75 10.125C3.75 11.989 5.26104 13.5 7.125 13.5H11.625C12.7952 13.5 13.8262 12.9045 14.4316 12H16.126C15.3913 13.7616 13.6529 15 11.625 15H7.125C4.43261 15 2.25 12.8174 2.25 10.125C2.25 7.43261 4.43261 5.25 7.125 5.25H11.625Z" fill="#0F1015"/>
</svg>
