<svg width="26" height="26" viewBox="0 0 26 26" fill="none" xmlns="http://www.w3.org/2000/svg">
<path d="M14.5497 23.2917C13.8636 23.2917 13.2117 23.1613 12.5942 22.9006C11.9767 22.6399 11.4279 22.2763 10.9476 21.8097C10.4261 21.9881 9.88411 22.0773 9.3215 22.0773C8.40211 22.0773 7.55133 21.8509 6.76916 21.398C5.987 20.9452 5.35577 20.3277 4.87549 19.5455C4.40894 18.7634 4.17566 17.892 4.17566 16.9315C4.17566 16.5335 4.23055 16.1013 4.34033 15.6347C3.79144 15.127 3.36605 14.5438 3.06416 13.8851C2.76227 13.2127 2.61133 12.5129 2.61133 11.7856C2.61133 11.0446 2.76913 10.3311 3.08474 9.64496C3.40036 8.95885 3.83947 8.36879 4.40208 7.87479C4.97841 7.36707 5.64394 7.01715 6.39866 6.82504C6.54961 6.04287 6.86522 5.34304 7.34549 4.72554C7.83949 4.09432 8.44327 3.60032 9.15683 3.24354C9.87038 2.88676 10.632 2.70837 11.4416 2.70837C12.1277 2.70837 12.7795 2.83874 13.397 3.09946C14.0145 3.36018 14.5634 3.72382 15.0437 4.19037C15.5651 4.01198 16.1071 3.92279 16.6697 3.92279C17.5891 3.92279 18.4399 4.14921 19.2221 4.60204C20.0042 5.05487 20.6286 5.67237 21.0952 6.45454C21.5754 7.23671 21.8156 8.10807 21.8156 9.06862C21.8156 9.46657 21.7607 9.89882 21.6509 10.3654C22.1998 10.8731 22.6252 11.4632 22.9271 12.1355C23.229 12.7942 23.3799 13.4872 23.3799 14.2145C23.3799 14.9555 23.2221 15.669 22.9065 16.3551C22.5909 17.0412 22.1449 17.6382 21.5686 18.1459C21.006 18.6399 20.3473 18.9829 19.5926 19.175C19.4416 19.9572 19.1192 20.657 18.6252 21.2745C18.1449 21.9058 17.548 22.3998 16.8344 22.7565C16.1209 23.1133 15.3593 23.2917 14.5497 23.2917ZM9.50675 20.4924C10.1517 20.4924 10.7212 20.3483 11.2152 20.0601L14.9407 17.9195C15.0917 17.8234 15.1672 17.693 15.1672 17.5284V16.0875L10.5771 18.7222C10.1517 18.9692 9.7263 18.9692 9.30091 18.7222L5.76058 16.6845C5.76058 16.6982 5.76058 16.7188 5.76058 16.7462C5.76058 16.7737 5.76058 16.808 5.76058 16.8491C5.76058 17.5215 5.91838 18.139 6.234 18.7016C6.56333 19.2505 7.01616 19.6828 7.59249 19.9984C8.16883 20.3277 8.80691 20.4924 9.50675 20.4924ZM9.692 17.1373C9.77433 17.1922 9.8498 17.2196 9.91841 17.2196C9.98702 17.2059 10.0625 17.1785 10.1448 17.1373L11.4004 16.4375L6.83091 13.7616C6.40552 13.5283 6.19283 13.1578 6.19283 12.6501V8.59521C5.58905 8.91082 5.10877 9.35679 4.75199 9.93312C4.40894 10.4957 4.23741 11.1201 4.23741 11.8062C4.23741 12.4512 4.39522 13.0687 4.71083 13.6587C5.04016 14.235 5.46555 14.6742 5.987 14.976L9.692 17.1373ZM14.5291 21.6862C15.2289 21.6862 15.8601 21.5284 16.4227 21.2128C16.9854 20.8972 17.4245 20.4649 17.7401 19.916C18.0694 19.3672 18.2341 18.7565 18.2341 18.0841V13.8028C18.2341 13.6244 18.1586 13.494 18.0077 13.4117L16.7521 12.6501V17.9606C16.7521 18.4683 16.5394 18.8388 16.114 19.0721L12.5942 21.1099C13.198 21.4941 13.843 21.6862 14.5291 21.6862ZM15.1672 14.2968V11.7033L13.0059 10.4683L10.8241 11.7033V14.2968L13.0059 15.5318L15.1672 14.2968ZM9.23916 8.03946C9.23916 7.53174 9.45186 7.16124 9.87725 6.92796L13.397 4.89021C12.7932 4.50598 12.1483 4.31387 11.4622 4.31387C10.7761 4.31387 10.1517 4.47168 9.58908 4.78729C9.02647 5.1029 8.5805 5.53515 8.25116 6.08404C7.93555 6.63293 7.77775 7.24357 7.77775 7.91596V12.1767C7.77775 12.3414 7.85322 12.4786 8.00416 12.5884L9.23916 13.35V8.03946ZM19.819 17.4049C20.4091 17.103 20.8756 16.6639 21.2187 16.0875C21.5754 15.5112 21.7538 14.88 21.7538 14.1939C21.7538 13.5489 21.5892 12.9383 21.2598 12.362C20.9442 11.7719 20.5257 11.3259 20.0042 11.024L16.2992 8.88337C16.2169 8.82849 16.1414 8.8079 16.0728 8.82162C16.0042 8.82162 15.9287 8.84221 15.8464 8.88337L14.5908 9.56262L19.1809 12.259C19.4005 12.3825 19.5583 12.5335 19.6543 12.7119C19.7641 12.8765 19.819 13.0892 19.819 13.35V17.4049ZM15.4142 7.23671C15.8396 6.97599 16.2649 6.97599 16.6903 7.23671L20.2307 9.31562C20.2307 9.27446 20.2307 9.23329 20.2307 9.19212C20.2307 8.5609 20.0729 7.96399 19.7572 7.40137C19.4554 6.82504 19.0162 6.36535 18.4399 6.02229C17.8773 5.67923 17.2255 5.50771 16.4845 5.50771C15.8396 5.50771 15.2701 5.65179 14.7761 5.93996L11.0505 8.08062C10.8996 8.17668 10.8241 8.30704 10.8241 8.47171V9.91254L15.4142 7.23671Z" fill="#0D0D0D"/>
</svg>
