<svg width="20" height="20" viewBox="0 0 20 20" fill="none" xmlns="http://www.w3.org/2000/svg">
<path d="M10.1493 9.84826C10.2454 10.5319 9.76911 11.164 9.08547 11.2601C8.40183 11.3561 7.76975 10.8798 7.67367 10.1962C7.57759 9.51256 8.0539 8.88047 8.73754 8.78439C9.42117 8.68831 10.0533 9.16462 10.1493 9.84826Z" fill="#0D0D0D"/>
<path d="M11.8991 1.42282L14.7797 1.7765C15.4455 1.85824 15.995 1.9257 16.4381 2.01724C16.8984 2.11231 17.3158 2.24631 17.6921 2.50014C18.2757 2.89377 18.7197 3.46205 18.9604 4.12353C19.1157 4.55008 19.1447 4.98746 19.1256 5.45705C19.1072 5.90917 19.0398 6.45868 18.958 7.12448L18.6043 10.005C18.5226 10.6708 18.4551 11.2203 18.3636 11.6635C18.2685 12.1237 18.1345 12.5411 17.8807 12.9174C17.487 13.501 16.9188 13.945 16.2573 14.1858C16.1894 14.2104 16.1209 14.2321 16.0513 14.251C15.6071 14.3715 15.1493 14.1092 15.0288 13.665C14.9083 13.2208 15.1706 12.7631 15.6148 12.6425C15.6401 12.6356 15.6642 12.628 15.6872 12.6196C16.018 12.4992 16.3021 12.2772 16.4989 11.9854C16.5807 11.8642 16.6572 11.6853 16.7314 11.3263C16.8075 10.9578 16.8673 10.4762 16.9543 9.76775L17.2996 6.95553C17.3865 6.24704 17.445 5.76533 17.4603 5.38932C17.4752 5.02306 17.4443 4.83102 17.3943 4.69356C17.2739 4.36283 17.0519 4.07869 16.7601 3.88187C16.6388 3.80007 16.46 3.7236 16.101 3.64945C15.7325 3.57332 15.2509 3.51354 14.5424 3.42655L11.7302 3.08125C11.0217 2.99426 10.54 2.93577 10.164 2.92048C9.79772 2.90558 9.60568 2.93651 9.46823 2.98654C9.13749 3.10692 8.85335 3.32891 8.65653 3.62071C8.60082 3.70331 8.54748 3.81305 8.49599 3.98681C8.36522 4.42808 7.90149 4.67978 7.46022 4.54901C7.01895 4.41824 6.76724 3.95451 6.89801 3.51325C6.98537 3.21849 7.10235 2.94438 7.2748 2.68872C7.66843 2.10513 8.23671 1.66114 8.89819 1.42039C9.32474 1.26514 9.76213 1.23609 10.2317 1.25519C10.6838 1.27357 11.2333 1.34105 11.8991 1.42282ZM9.79983 7.33357C9.42382 7.34887 8.94211 7.40736 8.23362 7.49435L5.42141 7.83965C4.71291 7.92664 4.23136 7.98642 3.86282 8.06255C3.50383 8.1367 3.32498 8.21317 3.20371 8.29497C2.91192 8.49178 2.68993 8.77592 2.56955 9.10666C2.51952 9.24412 2.48859 9.43615 2.50348 9.80241C2.51878 10.1784 2.57727 10.6601 2.66426 11.3686L2.89553 13.2522C3.06953 13.0634 3.2305 12.8955 3.38243 12.75C3.70828 12.438 4.04098 12.1802 4.44563 12.0149C5.07506 11.7576 5.7681 11.6991 6.43178 11.847C6.85845 11.9421 7.2297 12.1404 7.6033 12.3932C7.96231 12.6362 8.37507 12.9665 8.87412 13.3657L11.9281 15.8089C12.0453 15.6652 12.1384 15.5021 12.2026 15.3257C12.2526 15.1882 12.2836 14.9962 12.2687 14.6299C12.2534 14.2539 12.1949 13.7722 12.1079 13.0637L11.7626 10.2515C11.6756 9.543 11.6158 9.06145 11.5397 8.69291C11.4656 8.33392 11.3891 8.15507 11.3073 8.0338C11.1105 7.74201 10.8263 7.52002 10.4956 7.39964C10.3581 7.34961 10.1661 7.31867 9.79983 7.33357ZM10.119 16.496L7.859 14.688C7.32735 14.2627 6.96641 13.9747 6.66908 13.7735C6.38011 13.5779 6.20802 13.5047 6.06921 13.4737C5.73737 13.3998 5.39085 13.4291 5.07613 13.5577C4.94448 13.6115 4.78712 13.7125 4.53509 13.9539C4.27576 14.2022 3.96828 14.5466 3.51557 15.0552L3.177 15.4355C3.19491 15.5453 3.21316 15.646 3.23246 15.7394C3.30661 16.0984 3.38308 16.2773 3.46488 16.3985C3.66169 16.6903 3.94583 16.9123 4.27657 17.0327C4.41403 17.0827 4.60607 17.1137 4.97233 17.0988C5.34834 17.0835 5.83005 17.025 6.53854 16.938L9.35075 16.5927C9.6427 16.5568 9.89612 16.5256 10.119 16.496ZM9.7321 5.66828C10.2017 5.64918 10.6391 5.67823 11.0656 5.83348C11.7271 6.07424 12.2954 6.51823 12.689 7.10181C12.9428 7.47813 13.0768 7.8955 13.1719 8.35576C13.2634 8.79891 13.3309 9.34843 13.4127 10.0143L13.7663 12.8947C13.8481 13.5605 13.9156 14.1101 13.934 14.5622C13.9531 15.0318 13.924 15.4692 13.7688 15.8957C13.528 16.5572 13.084 17.1255 12.5004 17.5191C12.1241 17.7729 11.7067 17.9069 11.2465 18.002C10.8033 18.0935 10.2538 18.161 9.58799 18.2427L6.70748 18.5964C6.04168 18.6782 5.49218 18.7457 5.04006 18.7641C4.57047 18.7832 4.13308 18.7541 3.70654 18.5989C3.04506 18.3581 2.47678 17.9141 2.08315 17.3305C1.82932 16.9542 1.69532 16.5368 1.60025 16.0766C1.50871 15.6334 1.44125 15.0839 1.35951 14.4181L1.00582 11.5376C0.924062 10.8718 0.856583 10.3223 0.838193 9.87015C0.819094 9.40056 0.848143 8.96317 1.00339 8.53663C1.24415 7.87515 1.68814 7.30687 2.27173 6.91324C2.64804 6.65941 3.06541 6.52541 3.52567 6.43034C3.96881 6.3388 4.51831 6.27134 5.18411 6.1896L8.06465 5.83591C8.73046 5.75415 9.27997 5.68667 9.7321 5.66828Z" fill="#0D0D0D"/>
</svg>
