<svg width="24" height="24" viewBox="0 0 24 24" fill="none" xmlns="http://www.w3.org/2000/svg">
<path fill-rule="evenodd" clip-rule="evenodd" d="M19 4.5H5C4.86739 4.5 4.74021 4.55268 4.64645 4.64645C4.55268 4.74021 4.5 4.86739 4.5 5V19C4.5 19.1326 4.55268 19.2598 4.64645 19.3536C4.74021 19.4473 4.86739 19.5 5 19.5H19C19.1326 19.5 19.2598 19.4473 19.3536 19.3536C19.4473 19.2598 19.5 19.1326 19.5 19V5C19.5 4.86739 19.4473 4.74021 19.3536 4.64645C19.2598 4.55268 19.1326 4.5 19 4.5ZM5 3C4.46957 3 3.96086 3.21071 3.58579 3.58579C3.21071 3.96086 3 4.46957 3 5V19C3 19.5304 3.21071 20.0391 3.58579 20.4142C3.96086 20.7893 4.46957 21 5 21H19C19.5304 21 20.0391 20.7893 20.4142 20.4142C20.7893 20.0391 21 19.5304 21 19V5C21 4.46957 20.7893 3.96086 20.4142 3.58579C20.0391 3.21071 19.5304 3 19 3H5Z" fill="black"/>
</svg>
