<svg width="24" height="24" viewBox="0 0 24 24" fill="none" xmlns="http://www.w3.org/2000/svg">
<path d="M5.5 4H9.5C10.33 4 11 4.67 11 5.5V9.5C11 10.33 10.33 11 9.5 11H5.5C5.10218 11 4.72064 10.842 4.43934 10.5607C4.15804 10.2794 4 9.89782 4 9.5V5.5C4 4.67 4.67 4 5.5 4ZM14.5 4H18.5C19.33 4 20 4.67 20 5.5V9.5C20 10.33 19.33 11 18.5 11H14.5C14.1022 11 13.7206 10.842 13.4393 10.5607C13.158 10.2794 13 9.89782 13 9.5V5.5C13 4.67 13.67 4 14.5 4ZM14.5 13H18.5C19.33 13 20 13.67 20 14.5V18.5C20 19.33 19.33 20 18.5 20H14.5C14.1022 20 13.7206 19.842 13.4393 19.5607C13.158 19.2794 13 18.8978 13 18.5V14.5C13 13.67 13.67 13 14.5 13ZM5.5 13H9.5C10.33 13 11 13.67 11 14.5V18.5C11 19.33 10.33 20 9.5 20H5.5C5.10218 20 4.72064 19.842 4.43934 19.5607C4.15804 19.2794 4 18.8978 4 18.5V14.5C4 13.67 4.67 13 5.5 13ZM5.5 5.5V9.5H9.5V5.5H5.5ZM14.5 5.5V9.5H18.5V5.5H14.5ZM14.5 14.5V18.5H18.5V14.5H14.5ZM5.5 14.5V18.5H9.5V14.5H5.5Z" fill="black"/>
</svg>
