<svg width="24" height="24" viewBox="0 0 24 24" fill="none" xmlns="http://www.w3.org/2000/svg">
<path d="M16.209 15.75C16.2091 15.6018 16.2532 15.4569 16.3356 15.3337C16.418 15.2105 16.5351 15.1144 16.6721 15.0577C16.809 15.001 16.9597 14.9862 17.1051 15.015C17.2505 15.0439 17.3841 15.1152 17.489 15.22L19.634 17.364C19.7503 17.4802 19.8425 17.6181 19.9055 17.77C19.9684 17.9218 20.0008 18.0846 20.0008 18.249C20.0008 18.4134 19.9684 18.5762 19.9055 18.728C19.8425 18.8799 19.7503 19.0178 19.634 19.134L17.488 21.279C17.4193 21.3527 17.3365 21.4118 17.2445 21.4528C17.1525 21.4938 17.0532 21.5158 16.9525 21.5176C16.8518 21.5194 16.7518 21.5008 16.6584 21.4631C16.565 21.4254 16.4802 21.3693 16.409 21.298C16.3377 21.2268 16.2816 21.142 16.2439 21.0486C16.2062 20.9552 16.1876 20.8552 16.1894 20.7545C16.1912 20.6538 16.2132 20.5545 16.2542 20.4625C16.2952 20.3705 16.3543 20.2877 16.428 20.219L17.638 19.009H4.75C4.55109 19.009 4.36032 18.93 4.21967 18.7893C4.07902 18.6487 4 18.4579 4 18.259C4 18.0601 4.07902 17.8693 4.21967 17.7287C4.36032 17.588 4.55109 17.509 4.75 17.509H17.659L16.429 16.279C16.2883 16.1385 16.2092 15.9478 16.209 15.749V15.75ZM4.75 14C4.55109 14 4.36032 13.921 4.21967 13.7803C4.07902 13.6397 4 13.4489 4 13.25V5.75C4 5.55109 4.07902 5.36032 4.21967 5.21967C4.36032 5.07902 4.55109 5 4.75 5C4.94891 5 5.13968 5.07902 5.28033 5.21967C5.42098 5.36032 5.5 5.55109 5.5 5.75V13.25C5.5 13.4489 5.42098 13.6397 5.28033 13.7803C5.13968 13.921 4.94891 14 4.75 14ZM11.029 14C10.8301 14 10.6393 13.921 10.4987 13.7803C10.358 13.6397 10.279 13.4489 10.279 13.25V5.75C10.279 5.55109 10.358 5.36032 10.4987 5.21967C10.6393 5.07902 10.8301 5 11.029 5C11.2279 5 11.4187 5.07902 11.5593 5.21967C11.7 5.36032 11.779 5.55109 11.779 5.75V13.25C11.779 13.4489 11.7 13.6397 11.5593 13.7803C11.4187 13.921 11.2279 14 11.029 14ZM16.5 13.25C16.5 13.4489 16.579 13.6397 16.7197 13.7803C16.8603 13.921 17.0511 14 17.25 14C17.4489 14 17.6397 13.921 17.7803 13.7803C17.921 13.6397 18 13.4489 18 13.25V5.75C18 5.55109 17.921 5.36032 17.7803 5.21967C17.6397 5.07902 17.4489 5 17.25 5C17.0511 5 16.8603 5.07902 16.7197 5.21967C16.579 5.36032 16.5 5.55109 16.5 5.75V13.25Z" fill="black"/>
</svg>
