<svg width="24" height="24" viewBox="0 0 24 24" fill="none" xmlns="http://www.w3.org/2000/svg">
<path d="M17.75 4C17.5511 4 17.3603 4.07902 17.2197 4.21967C17.079 4.36032 17 4.55109 17 4.75V17.65L15.78 16.43C15.6378 16.2975 15.4498 16.2254 15.2555 16.2288C15.0612 16.2323 14.8758 16.311 14.7384 16.4484C14.601 16.5858 14.5223 16.7712 14.5188 16.9655C14.5154 17.1598 14.5875 17.3478 14.72 17.49L16.865 19.636C16.9811 19.7524 17.1191 19.8448 17.2709 19.9078C17.4228 19.9708 17.5856 20.0032 17.75 20.0032C17.9144 20.0032 18.0772 19.9708 18.2291 19.9078C18.3809 19.8448 18.5189 19.7524 18.635 19.636L20.78 17.49C20.8537 17.4213 20.9128 17.3385 20.9538 17.2465C20.9948 17.1545 21.0168 17.0552 21.0186 16.9545C21.0204 16.8538 21.0018 16.7538 20.9641 16.6604C20.9264 16.567 20.8703 16.4822 20.799 16.411C20.7278 16.3397 20.643 16.2836 20.5496 16.2459C20.4562 16.2082 20.3562 16.1896 20.2555 16.1914C20.1548 16.1932 20.0555 16.2152 19.9635 16.2562C19.8715 16.2972 19.7887 16.3563 19.72 16.43L18.5 17.65V4.75C18.5 4.55109 18.421 4.36032 18.2803 4.21967C18.1397 4.07902 17.9489 4 17.75 4ZM3 6C3 5.80109 3.07902 5.61032 3.21967 5.46967C3.36032 5.32902 3.55109 5.25 3.75 5.25H11.25C11.4489 5.25 11.6397 5.32902 11.7803 5.46967C11.921 5.61032 12 5.80109 12 6C12 6.19891 11.921 6.38968 11.7803 6.53033C11.6397 6.67098 11.4489 6.75 11.25 6.75H3.75C3.55109 6.75 3.36032 6.67098 3.21967 6.53033C3.07902 6.38968 3 6.19891 3 6ZM3 12C3 11.8011 3.07902 11.6103 3.21967 11.4697C3.36032 11.329 3.55109 11.25 3.75 11.25H11.25C11.4489 11.25 11.6397 11.329 11.7803 11.4697C11.921 11.6103 12 11.8011 12 12C12 12.1989 11.921 12.3897 11.7803 12.5303C11.6397 12.671 11.4489 12.75 11.25 12.75H3.75C3.55109 12.75 3.36032 12.671 3.21967 12.5303C3.07902 12.3897 3 12.1989 3 12ZM3.75 17.25C3.55109 17.25 3.36032 17.329 3.21967 17.4697C3.07902 17.6103 3 17.8011 3 18C3 18.1989 3.07902 18.3897 3.21967 18.5303C3.36032 18.671 3.55109 18.75 3.75 18.75H11.25C11.4489 18.75 11.6397 18.671 11.7803 18.5303C11.921 18.3897 12 18.1989 12 18C12 17.8011 11.921 17.6103 11.7803 17.4697C11.6397 17.329 11.4489 17.25 11.25 17.25H3.75Z" fill="black"/>
</svg>
