<svg width="24" height="24" viewBox="0 0 24 24" fill="none" xmlns="http://www.w3.org/2000/svg">
<path fill-rule="evenodd" clip-rule="evenodd" d="M21.7474 11.022C21.7778 12.0532 21.6019 13.0802 21.2302 14.0426C20.8585 15.0049 20.2984 15.8834 19.5827 16.6265C18.867 17.3696 18.0102 17.9623 17.0624 18.3699C16.1146 18.7774 15.095 18.9917 14.0634 19C14.0464 19.007 14.0194 19.02 13.9804 19.04C13.8278 19.1269 13.6812 19.2238 13.5414 19.33C13.1834 19.593 12.7594 19.954 12.3434 20.326C11.9294 20.696 11.5384 21.066 11.2464 21.344L11.1004 21.484L10.8944 21.68C10.8356 21.7347 10.7756 21.788 10.7144 21.84L10.7134 21.841C10.7044 21.848 10.6584 21.884 10.5954 21.916L10.5934 21.917C10.4517 21.9891 10.2908 22.0146 10.1337 21.99C9.97663 21.9655 9.83129 21.892 9.71838 21.78C9.57769 21.6395 9.49855 21.4488 9.49838 21.25V18.984C7.48985 18.8547 5.61038 17.9492 4.25763 16.4589C2.90488 14.9686 2.18495 13.0105 2.25017 10.9989C2.31539 8.98725 3.16063 7.07989 4.60708 5.68036C6.05352 4.28082 7.98769 3.49889 10.0004 3.5H14.0004C14.1984 3.5 14.3944 3.507 14.5884 3.522C14.3564 3.982 14.1874 4.478 14.0914 5.001L14.0004 5H10.0004C8.34277 5 6.75306 5.65848 5.58096 6.83058C4.40886 8.00269 3.75038 9.5924 3.75038 11.25C3.75038 12.9076 4.40886 14.4973 5.58096 15.6694C6.75306 16.8415 8.34277 17.5 10.0004 17.5H10.9984V19.52C11.1104 19.418 11.2254 19.314 11.3424 19.21C11.7704 18.826 12.2364 18.428 12.6524 18.122C12.8594 17.969 13.0694 17.828 13.2664 17.722C13.4324 17.632 13.7044 17.5 14.0004 17.5C15.6234 17.5001 17.1828 16.8688 18.3486 15.7396C19.5145 14.6105 20.1954 13.0722 20.2474 11.45C20.7653 11.3798 21.2704 11.2357 21.7474 11.022Z" fill="#0D1216"/>
<path fill-rule="evenodd" clip-rule="evenodd" d="M18.75 8.75C18.75 8.94891 18.829 9.13968 18.9697 9.28033C19.1103 9.42098 19.3011 9.5 19.5 9.5C19.6989 9.5 19.8897 9.42098 20.0303 9.28033C20.171 9.13968 20.25 8.94891 20.25 8.75V6.75H22.25C22.4489 6.75 22.6397 6.67098 22.7803 6.53033C22.921 6.38968 23 6.19891 23 6C23 5.80109 22.921 5.61032 22.7803 5.46967C22.6397 5.32902 22.4489 5.25 22.25 5.25H20.25V3.25C20.25 3.05109 20.171 2.86032 20.0303 2.71967C19.8897 2.57902 19.6989 2.5 19.5 2.5C19.3011 2.5 19.1103 2.57902 18.9697 2.71967C18.829 2.86032 18.75 3.05109 18.75 3.25V5.25H16.75C16.5511 5.25 16.3603 5.32902 16.2197 5.46967C16.079 5.61032 16 5.80109 16 6C16 6.19891 16.079 6.38968 16.2197 6.53033C16.3603 6.67098 16.5511 6.75 16.75 6.75H18.75V8.75Z" fill="#0D1216"/>
</svg>
