<svg width="168" height="24" viewBox="0 0 168 24" fill="none" xmlns="http://www.w3.org/2000/svg">
<path d="M11.3486 3.27734C11.6987 3.06357 12.1273 3.0369 12.4971 3.19727L12.6514 3.27734L19.6514 7.55469C20.0229 7.78176 20.25 8.18661 20.25 8.62207V15.3779C20.25 15.8134 20.0229 16.2182 19.6514 16.4453L12.6514 20.7227C12.3013 20.9364 11.8727 20.9631 11.5029 20.8027L11.3486 20.7227L4.34863 16.4453C3.97706 16.2182 3.75 15.8134 3.75 15.3779V8.62207C3.75 8.18661 3.97706 7.78176 4.34863 7.55469L11.3486 3.27734Z" stroke="#191E26" stroke-width="1.5"/>
<circle cx="12" cy="12" r="3.25" stroke="#191E26" stroke-width="1.5"/>
<path d="M37.915 17.1436C37.0173 17.1436 36.222 16.9476 35.5293 16.5557C34.8366 16.1637 34.2943 15.5827 33.9023 14.8125C33.5104 14.0423 33.3145 13.1058 33.3145 12.0029C33.3145 10.9001 33.5104 9.96354 33.9023 9.19336C34.2943 8.42318 34.8366 7.84212 35.5293 7.4502C36.222 7.05827 37.0173 6.8623 37.915 6.8623C38.863 6.8623 39.6582 7.0446 40.3008 7.40918C40.9479 7.77376 41.4128 8.3252 41.6953 9.06348L40.5947 9.75391H40.4238C40.1823 9.20703 39.8587 8.81738 39.4531 8.58496C39.0521 8.35254 38.5394 8.23633 37.915 8.23633C37.0127 8.23633 36.2949 8.53939 35.7617 9.14551C35.2285 9.75163 34.9619 10.7041 34.9619 12.0029C34.9619 13.2972 35.2285 14.2474 35.7617 14.8535C36.2949 15.4551 37.0127 15.7559 37.915 15.7559C38.5986 15.7559 39.1546 15.5986 39.583 15.2842C40.016 14.9652 40.3236 14.4616 40.5059 13.7734H40.6768L41.7979 14.3477C41.5426 15.2637 41.0892 15.9587 40.4375 16.4326C39.7904 16.9066 38.9495 17.1436 37.915 17.1436ZM43.4248 17V9.45996H44.874V10.6084L45.0176 10.6426C45.1999 10.2096 45.4482 9.8929 45.7627 9.69238C46.0771 9.49186 46.4577 9.3916 46.9043 9.3916C47.3828 9.3916 47.7383 9.47363 47.9707 9.6377L47.6699 10.9297L47.5264 10.957C47.3988 10.8978 47.2689 10.8545 47.1367 10.8271C47.0046 10.7952 46.8519 10.7793 46.6787 10.7793C46.1136 10.7793 45.6807 10.9844 45.3799 11.3945C45.0791 11.8047 44.9287 12.4678 44.9287 13.3838V17H43.4248ZM55.2168 13.5684H50.1992C50.2858 15.0814 50.9876 15.8379 52.3047 15.8379C52.7923 15.8379 53.1842 15.7513 53.4805 15.5781C53.7812 15.4004 54.0182 15.127 54.1914 14.7578H54.335L55.3262 15.373C55.0938 15.9108 54.7314 16.3415 54.2393 16.665C53.7516 16.984 53.1068 17.1436 52.3047 17.1436C51.5527 17.1436 50.9033 16.9977 50.3564 16.7061C49.8096 16.4144 49.388 15.9769 49.0918 15.3936C48.7956 14.8102 48.6475 14.0902 48.6475 13.2334C48.6475 12.3766 48.8024 11.6543 49.1123 11.0664C49.4222 10.4785 49.846 10.041 50.3838 9.75391C50.9215 9.46224 51.5277 9.31641 52.2021 9.31641C53.2184 9.31641 54.0023 9.5944 54.5537 10.1504C55.1097 10.7064 55.39 11.5244 55.3945 12.6045C55.3945 13.0101 55.3831 13.304 55.3604 13.4863L55.2168 13.5684ZM53.9385 12.4951C53.9202 11.807 53.763 11.3057 53.4668 10.9912C53.1751 10.6768 52.7536 10.5195 52.2021 10.5195C51.6462 10.5195 51.1995 10.6768 50.8623 10.9912C50.5296 11.3057 50.32 11.807 50.2334 12.4951H53.9385ZM59.0449 17.1436C58.3066 17.1436 57.7279 16.9476 57.3086 16.5557C56.8893 16.1592 56.6797 15.5986 56.6797 14.874C56.6797 14.4274 56.7731 14.0514 56.96 13.7461C57.1468 13.4408 57.4385 13.1924 57.835 13.001C58.2314 12.805 58.7464 12.6546 59.3799 12.5498C59.8766 12.4678 60.2549 12.3766 60.5146 12.2764C60.7744 12.1761 60.9499 12.0645 61.041 11.9414C61.1322 11.8138 61.1777 11.6543 61.1777 11.4629C61.1777 11.1712 61.0752 10.9479 60.8701 10.793C60.6696 10.638 60.3415 10.5605 59.8857 10.5605C59.0244 10.5605 58.293 10.9183 57.6914 11.6338H57.5547L56.8848 10.6494C57.2357 10.2347 57.6709 9.90885 58.1904 9.67188C58.7145 9.4349 59.2956 9.31641 59.9336 9.31641C60.877 9.31641 61.5651 9.51921 61.998 9.9248C62.4355 10.3304 62.6543 10.9001 62.6543 11.6338V15.2705C62.6543 15.6488 62.8161 15.8379 63.1396 15.8379C63.2581 15.8379 63.3721 15.8174 63.4814 15.7764L63.5771 15.8037L63.707 16.8496C63.6159 16.9134 63.4883 16.9635 63.3242 17C63.1647 17.0365 62.9938 17.0547 62.8115 17.0547C62.3786 17.0547 62.0459 16.9658 61.8135 16.7881C61.5856 16.6104 61.4284 16.3392 61.3418 15.9746L61.1982 15.9609C60.9977 16.3574 60.7197 16.6536 60.3643 16.8496C60.0133 17.0456 59.5736 17.1436 59.0449 17.1436ZM59.4688 15.9883C59.8197 15.9883 60.1273 15.9085 60.3916 15.749C60.6559 15.585 60.8587 15.3525 61 15.0518C61.1413 14.751 61.2119 14.3978 61.2119 13.9922V13.1309L61.082 13.1035C60.9408 13.2083 60.763 13.2972 60.5488 13.3701C60.3392 13.4385 60.0384 13.5046 59.6465 13.5684C59.1178 13.6458 58.7419 13.7848 58.5186 13.9854C58.2998 14.1813 58.1904 14.4593 58.1904 14.8193C58.1904 15.2021 58.3021 15.4938 58.5254 15.6943C58.7487 15.8903 59.0632 15.9883 59.4688 15.9883ZM68.9502 15.5029L69.374 16.6035C69.1826 16.7767 68.9365 16.9089 68.6357 17C68.335 17.0957 68.0023 17.1436 67.6377 17.1436C66.8812 17.1436 66.3047 16.943 65.9082 16.542C65.5117 16.141 65.3135 15.5417 65.3135 14.7441V10.6631H64.083V9.45312H65.3135V7.92188L66.8174 7.67578V9.45312H69.1006V10.6631H66.8174V14.6211C66.8174 15.0404 66.904 15.3434 67.0771 15.5303C67.2549 15.7171 67.5078 15.8105 67.8359 15.8105C68.2051 15.8105 68.5286 15.708 68.8066 15.5029H68.9502ZM76.832 13.5684H71.8145C71.901 15.0814 72.6029 15.8379 73.9199 15.8379C74.4076 15.8379 74.7995 15.7513 75.0957 15.5781C75.3965 15.4004 75.6335 15.127 75.8066 14.7578H75.9502L76.9414 15.373C76.709 15.9108 76.3467 16.3415 75.8545 16.665C75.3669 16.984 74.722 17.1436 73.9199 17.1436C73.168 17.1436 72.5186 16.9977 71.9717 16.7061C71.4248 16.4144 71.0033 15.9769 70.707 15.3936C70.4108 14.8102 70.2627 14.0902 70.2627 13.2334C70.2627 12.3766 70.4176 11.6543 70.7275 11.0664C71.0374 10.4785 71.4613 10.041 71.999 9.75391C72.5368 9.46224 73.1429 9.31641 73.8174 9.31641C74.8337 9.31641 75.6175 9.5944 76.1689 10.1504C76.7249 10.7064 77.0052 11.5244 77.0098 12.6045C77.0098 13.0101 76.9984 13.304 76.9756 13.4863L76.832 13.5684ZM75.5537 12.4951C75.5355 11.807 75.3783 11.3057 75.082 10.9912C74.7904 10.6768 74.3688 10.5195 73.8174 10.5195C73.2614 10.5195 72.8148 10.6768 72.4775 10.9912C72.1449 11.3057 71.9352 11.807 71.8486 12.4951H75.5537ZM85.3701 17.1436C84.6729 17.1436 84.0508 16.9932 83.5039 16.6924C82.9616 16.387 82.5355 15.9404 82.2256 15.3525C81.9157 14.7646 81.7607 14.0583 81.7607 13.2334C81.7607 12.4085 81.9157 11.7021 82.2256 11.1143C82.5355 10.5218 82.9616 10.0752 83.5039 9.77441C84.0462 9.46908 84.6637 9.31641 85.3564 9.31641C86.1722 9.31641 86.8216 9.4668 87.3047 9.76758C87.7878 10.0684 88.1341 10.4808 88.3438 11.0049L87.3184 11.7432H87.1748C86.9971 11.3604 86.7646 11.0778 86.4775 10.8955C86.195 10.7087 85.8213 10.6152 85.3564 10.6152C84.7275 10.6152 84.2308 10.8363 83.8662 11.2783C83.5016 11.7158 83.3193 12.3675 83.3193 13.2334C83.3193 14.0902 83.5016 14.7396 83.8662 15.1816C84.2354 15.6191 84.7367 15.8379 85.3701 15.8379C86.3089 15.8379 86.9378 15.3776 87.2568 14.457L87.4004 14.4502L88.4395 15.0381C88.2435 15.6715 87.8903 16.182 87.3799 16.5693C86.8695 16.9521 86.1995 17.1436 85.3701 17.1436ZM93.1426 17.1436C92.418 17.1436 91.7845 16.9932 91.2422 16.6924C90.6999 16.3916 90.2806 15.9473 89.9844 15.3594C89.6882 14.7715 89.54 14.0628 89.54 13.2334C89.54 12.3994 89.6882 11.6908 89.9844 11.1074C90.2806 10.5195 90.6999 10.0752 91.2422 9.77441C91.7845 9.46908 92.418 9.31641 93.1426 9.31641C93.8672 9.31641 94.5007 9.46908 95.043 9.77441C95.5853 10.0752 96.0046 10.5195 96.3008 11.1074C96.6016 11.6908 96.752 12.3994 96.752 13.2334C96.752 14.0628 96.6016 14.7715 96.3008 15.3594C96.0046 15.9473 95.5853 16.3916 95.043 16.6924C94.5007 16.9932 93.8672 17.1436 93.1426 17.1436ZM93.1426 15.8379C94.5052 15.8379 95.1865 14.9697 95.1865 13.2334C95.1865 11.488 94.5052 10.6152 93.1426 10.6152C92.4818 10.6152 91.9759 10.8294 91.625 11.2578C91.2741 11.6816 91.0986 12.3402 91.0986 13.2334C91.0986 14.9697 91.7799 15.8379 93.1426 15.8379ZM98.7002 17V9.45996H100.136V10.5195L100.279 10.5469C100.535 10.1322 100.835 9.82454 101.182 9.62402C101.528 9.41895 101.954 9.31641 102.46 9.31641C103.039 9.31641 103.494 9.42806 103.827 9.65137C104.16 9.87467 104.41 10.2165 104.579 10.6768H104.723C104.969 10.221 105.279 9.88151 105.652 9.6582C106.026 9.43034 106.489 9.31641 107.04 9.31641C107.824 9.31641 108.407 9.53288 108.79 9.96582C109.173 10.3942 109.364 11.0368 109.364 11.8936V17H107.86V12.0234C107.86 11.5312 107.758 11.1712 107.553 10.9434C107.352 10.7155 107.029 10.6016 106.582 10.6016C106.035 10.6016 105.598 10.793 105.27 11.1758C104.946 11.5586 104.784 12.1829 104.784 13.0488V17H103.28V12.0234C103.28 11.5312 103.178 11.1712 102.973 10.9434C102.772 10.7155 102.449 10.6016 102.002 10.6016C101.455 10.6016 101.018 10.7884 100.689 11.1621C100.366 11.5358 100.204 12.1396 100.204 12.9736V17H98.7002ZM111.647 20.0557V9.45996H113.151V10.5127L113.295 10.54C113.55 10.1253 113.876 9.81771 114.272 9.61719C114.669 9.41667 115.122 9.31641 115.633 9.31641C116.253 9.31641 116.793 9.45996 117.253 9.74707C117.713 10.0342 118.071 10.4717 118.326 11.0596C118.581 11.6429 118.709 12.3675 118.709 13.2334C118.709 14.0947 118.572 14.8171 118.299 15.4004C118.03 15.9837 117.656 16.4212 117.178 16.7129C116.704 17 116.155 17.1436 115.53 17.1436C115.043 17.1436 114.614 17.0592 114.245 16.8906C113.876 16.722 113.559 16.4531 113.295 16.084L113.151 16.1113V20.0557H111.647ZM115.141 15.8379C115.792 15.8379 116.289 15.6305 116.631 15.2158C116.977 14.7965 117.15 14.1357 117.15 13.2334C117.15 12.3265 116.977 11.6634 116.631 11.2441C116.289 10.8249 115.792 10.6152 115.141 10.6152C114.535 10.6152 114.049 10.8317 113.685 11.2646C113.32 11.6976 113.138 12.3538 113.138 13.2334C113.138 14.1084 113.32 14.7624 113.685 15.1953C114.049 15.6237 114.535 15.8379 115.141 15.8379ZM123.822 17.1436C123.098 17.1436 122.464 16.9932 121.922 16.6924C121.38 16.3916 120.96 15.9473 120.664 15.3594C120.368 14.7715 120.22 14.0628 120.22 13.2334C120.22 12.3994 120.368 11.6908 120.664 11.1074C120.96 10.5195 121.38 10.0752 121.922 9.77441C122.464 9.46908 123.098 9.31641 123.822 9.31641C124.547 9.31641 125.18 9.46908 125.723 9.77441C126.265 10.0752 126.684 10.5195 126.98 11.1074C127.281 11.6908 127.432 12.3994 127.432 13.2334C127.432 14.0628 127.281 14.7715 126.98 15.3594C126.684 15.9473 126.265 16.3916 125.723 16.6924C125.18 16.9932 124.547 17.1436 123.822 17.1436ZM123.822 15.8379C125.185 15.8379 125.866 14.9697 125.866 13.2334C125.866 11.488 125.185 10.6152 123.822 10.6152C123.161 10.6152 122.656 10.8294 122.305 11.2578C121.954 11.6816 121.778 12.3402 121.778 13.2334C121.778 14.9697 122.46 15.8379 123.822 15.8379ZM129.38 17V9.45996H130.815V10.6016L130.959 10.6357C131.201 10.2028 131.513 9.87467 131.896 9.65137C132.278 9.42806 132.745 9.31641 133.297 9.31641C134.186 9.31641 134.833 9.55111 135.238 10.0205C135.648 10.4854 135.854 11.1849 135.854 12.1191V17H134.35V12.249C134.35 11.6611 134.233 11.2396 134.001 10.9844C133.769 10.7292 133.395 10.6016 132.88 10.6016C132.265 10.6016 131.777 10.8021 131.417 11.2031C131.062 11.6042 130.884 12.2399 130.884 13.1104V17H129.38ZM144.262 13.5684H139.244C139.331 15.0814 140.033 15.8379 141.35 15.8379C141.837 15.8379 142.229 15.7513 142.525 15.5781C142.826 15.4004 143.063 15.127 143.236 14.7578H143.38L144.371 15.373C144.139 15.9108 143.776 16.3415 143.284 16.665C142.797 16.984 142.152 17.1436 141.35 17.1436C140.598 17.1436 139.948 16.9977 139.401 16.7061C138.854 16.4144 138.433 15.9769 138.137 15.3936C137.84 14.8102 137.692 14.0902 137.692 13.2334C137.692 12.3766 137.847 11.6543 138.157 11.0664C138.467 10.4785 138.891 10.041 139.429 9.75391C139.966 9.46224 140.573 9.31641 141.247 9.31641C142.263 9.31641 143.047 9.5944 143.599 10.1504C144.155 10.7064 144.435 11.5244 144.439 12.6045C144.439 13.0101 144.428 13.304 144.405 13.4863L144.262 13.5684ZM142.983 12.4951C142.965 11.807 142.808 11.3057 142.512 10.9912C142.22 10.6768 141.799 10.5195 141.247 10.5195C140.691 10.5195 140.244 10.6768 139.907 10.9912C139.575 11.3057 139.365 11.807 139.278 12.4951H142.983ZM146.265 17V9.45996H147.7V10.6016L147.844 10.6357C148.085 10.2028 148.397 9.87467 148.78 9.65137C149.163 9.42806 149.63 9.31641 150.182 9.31641C151.07 9.31641 151.717 9.55111 152.123 10.0205C152.533 10.4854 152.738 11.1849 152.738 12.1191V17H151.234V12.249C151.234 11.6611 151.118 11.2396 150.886 10.9844C150.653 10.7292 150.28 10.6016 149.765 10.6016C149.149 10.6016 148.662 10.8021 148.302 11.2031C147.946 11.6042 147.769 12.2399 147.769 13.1104V17H146.265ZM158.925 15.5029L159.349 16.6035C159.157 16.7767 158.911 16.9089 158.61 17C158.31 17.0957 157.977 17.1436 157.612 17.1436C156.856 17.1436 156.279 16.943 155.883 16.542C155.486 16.141 155.288 15.5417 155.288 14.7441V10.6631H154.058V9.45312H155.288V7.92188L156.792 7.67578V9.45312H159.075V10.6631H156.792V14.6211C156.792 15.0404 156.879 15.3434 157.052 15.5303C157.229 15.7171 157.482 15.8105 157.811 15.8105C158.18 15.8105 158.503 15.708 158.781 15.5029H158.925Z" fill="#0E1318"/>
</svg>
