<svg width="24" height="24" viewBox="0 0 24 24" fill="none" xmlns="http://www.w3.org/2000/svg">
<path d="M8 5C8 4.20435 8.31607 3.44129 8.87868 2.87868C9.44129 2.31607 10.2044 2 11 2H13C13.7956 2 14.5587 2.31607 15.1213 2.87868C15.6839 3.44129 16 4.20435 16 5H20.25C20.4489 5 20.6397 5.07902 20.7803 5.21967C20.921 5.36032 21 5.55109 21 5.75C21 5.94891 20.921 6.13968 20.7803 6.28033C20.6397 6.42098 20.4489 6.5 20.25 6.5H19V18C19 18.7956 18.6839 19.5587 18.1213 20.1213C17.5587 20.6839 16.7956 21 16 21H8C7.20435 21 6.44129 20.6839 5.87868 20.1213C5.31607 19.5587 5 18.7956 5 18V6.5H3.75C3.55109 6.5 3.36032 6.42098 3.21967 6.28033C3.07902 6.13968 3 5.94891 3 5.75C3 5.55109 3.07902 5.36032 3.21967 5.21967C3.36032 5.07902 3.55109 5 3.75 5H8ZM6.5 6.5V18C6.5 18.83 7.17 19.5 8 19.5H16C16.83 19.5 17.5 18.83 17.5 18V6.5H6.5ZM9.5 5H14.5C14.5 4.17 13.83 3.5 13 3.5H11C10.17 3.5 9.5 4.17 9.5 5ZM9.25 9H10.75V17H9.25V9ZM13.25 9H14.75V17H13.25V9Z" fill="black"/>
</svg>
